<?xml version="1.0" encoding="UTF-8"?>
<svg version="1.1" xmlns="http://www.w3.org/2000/svg" width="512" height="512">
<path d="M0 0 C168.96 0 337.92 0 512 0 C512 168.96 512 337.92 512 512 C343.04 512 174.08 512 0 512 C0 343.04 0 174.08 0 0 Z " fill="#FEFEFE" transform="translate(0,0)"/>
<path d="M0 0 C1.48033716 -0.01213301 2.96064381 -0.02902785 4.44086838 -0.0509491 C6.49877205 -0.07918143 8.55578344 -0.08728456 10.61385918 -0.08965302 C11.79682076 -0.09740753 12.97978233 -0.10516205 14.19859123 -0.11315155 C17.5185793 0.28070549 18.86451817 0.94309304 21.23666191 3.24726105 C22.14291191 5.11444855 22.14291191 5.11444855 22.73666191 7.12226105 C23.98345751 10.84231966 25.73787785 13.20186798 28.23666191 16.24726105 C31.46795615 23.18855978 32.92322048 28.62409345 32.23666191 36.24726105 C30.084488 41.823348 30.084488 41.823348 27.23666191 43.24726105 C24.61166191 43.74726105 24.61166191 43.74726105 21.23666191 43.24726105 C17.68717129 40.74450112 14.59153439 37.76031661 11.69759941 34.52851105 C10.15986641 32.91538945 10.15986641 32.91538945 7.04916191 33.05976105 C6.12103691 33.12163605 5.19291191 33.18351105 4.23666191 33.24726105 C4.89666191 33.90726105 5.55666191 34.56726105 6.23666191 35.24726105 C8.72617336 38.98152822 8.93754709 41.93217279 8.23666191 46.24726105 C6.25531251 51.59690443 6.25531251 51.59690443 3.41683769 53.40912628 C0.94245376 54.36036481 -0.7572539 54.39818652 -3.39615059 54.2824173 C-13.00194301 54.00164299 -13.00194301 54.00164299 -21.56070137 57.64716339 C-24.79960767 61.50931214 -26.75218459 66.01763864 -28.66861153 70.64374542 C-29.81624452 73.37308491 -31.08731441 76.0136087 -32.39615059 78.66913605 C-37.39424627 88.9594395 -41.42567006 99.24352049 -44.25747871 110.3239212 C-44.74256108 112.16826429 -45.29072591 113.99566631 -45.84146309 115.8214798 C-48.4053751 124.51773361 -49.69667809 133.13248511 -50.72476387 142.1286087 C-52.34662778 156.15495189 -52.34662778 156.15495189 -55.11490059 160.2433548 C-57.96027392 161.97620064 -60.35530583 161.4281708 -63.54068184 160.9464798 C-67.32288816 159.75664688 -68.74673317 157.54716001 -70.76333809 154.24726105 C-72.68065754 148.70809644 -73.24042931 143.42336392 -73.61490059 137.5949173 C-73.67865883 136.69478409 -73.74241707 135.79465088 -73.80810738 134.86724091 C-74.00852083 132.01518303 -74.19858587 129.16254604 -74.38833809 126.30976105 C-74.52306975 124.36635406 -74.65847943 122.42299395 -74.79458809 120.47968292 C-75.12535131 115.73604867 -75.44684071 110.9918676 -75.76333809 106.24726105 C-76.37248055 106.19057755 -76.981623 106.13389404 -77.60922432 106.07549286 C-110.49485008 103.01148007 -110.49485008 103.01148007 -125.75747871 100.49140167 C-133.44447511 99.24602237 -141.16259109 98.27958936 -148.88833809 97.30976105 C-158.93437389 96.04527116 -168.95264713 94.66700904 -178.95083809 93.05976105 C-179.98933907 92.89290802 -181.02784004 92.72605499 -182.09781075 92.55414581 C-189.20719748 91.38842695 -189.20719748 91.38842695 -191.91397285 90.70136261 C-194.16187219 90.14940317 -196.2022785 90.15077488 -198.51333809 90.18476105 C-199.93000476 90.20559438 -201.34667142 90.22642771 -202.76333809 90.24726105 C-195.32581495 91.97765597 -187.85209123 93.33718081 -180.32583809 94.62226105 C-179.04378487 94.84140167 -177.76173164 95.0605423 -176.44082832 95.28632355 C-160.67953799 97.96757302 -144.9093756 100.50516017 -129.04068184 102.46601105 C-127.32574944 102.68079678 -125.61082434 102.89564076 -123.89590645 103.1105423 C-120.54292581 103.53005659 -117.18840743 103.93095567 -113.8319416 104.3214798 C-97.07747785 106.35025292 -97.07747785 106.35025292 -90.76333809 110.24726105 C-88.56147721 113.55005236 -88.56289442 114.03923456 -89.07583809 117.74726105 C-89.1750959 118.52069855 -89.27435371 119.29413605 -89.37661934 120.09101105 C-89.76333809 122.24726105 -89.76333809 122.24726105 -90.76333809 125.24726105 C-105.85246352 126.12340381 -121.46418208 123.57463492 -136.05630684 119.86444855 C-139.42278378 119.09691124 -142.7358709 118.83561851 -146.17154121 118.57221222 C-148.82285321 118.23979923 -151.18576116 117.61797381 -153.74380684 116.8527298 C-160.0783341 115.07579081 -166.45201418 114.03820144 -172.95083809 113.05976105 C-174.093592 112.88251495 -175.2363459 112.70526886 -176.41372871 112.52265167 C-179.19611944 112.09190499 -181.97925101 111.66687763 -184.76333809 111.24726105 C-184.76333809 111.90726105 -184.76333809 112.56726105 -184.76333809 113.24726105 C-184.1200959 113.28464386 -183.47685371 113.32202667 -182.81411934 113.3605423 C-169.70559284 114.31422967 -152.02887384 116.99266014 -141.26333809 125.18476105 C-138.76333809 128.24726105 -138.76333809 128.24726105 -138.63833809 131.49726105 C-139.76333809 134.24726105 -139.76333809 134.24726105 -142.76333809 136.24726105 C-153.27616726 137.85034094 -163.30293035 134.65945501 -173.33560371 131.9098587 C-176.82170439 130.95840283 -180.32100507 130.06430597 -183.82583809 129.18476105 C-185.71689278 128.70909698 -185.71689278 128.70909698 -187.64615059 128.22382355 C-193.30831024 126.84820732 -199.02094653 125.69500391 -204.73428535 124.55365753 C-210.65926355 123.35133559 -210.65926355 123.35133559 -211.76333809 122.24726105 C-211.8360555 119.8941255 -211.84704677 117.53892436 -211.82583809 115.18476105 C-211.81681465 113.89440948 -211.80779121 112.60405792 -211.79849434 111.2746048 C-211.78689278 110.27558136 -211.77529121 109.27655792 -211.76333809 108.24726105 C-210.34631296 108.38956913 -208.92972849 108.53626851 -207.51333809 108.68476105 C-206.32997871 108.80657745 -206.32997871 108.80657745 -205.12271309 108.9308548 C-202.76333809 109.24726105 -202.76333809 109.24726105 -198.76333809 110.24726105 C-194.80333809 110.24726105 -190.84333809 110.24726105 -186.76333809 110.24726105 C-195.01333809 108.59726105 -203.26333809 106.94726105 -211.76333809 105.24726105 C-211.76333809 93.91392771 -211.76333809 82.58059438 -211.76333809 71.24726105 C-205.27911755 71.10360259 -199.22358732 71.61136128 -192.82583809 72.62226105 C-186.02328311 73.64764174 -179.22960351 74.5840594 -172.38833809 75.30976105 C-166.98091722 75.88537066 -161.59003731 76.5146934 -156.20083809 77.24726105 C-143.97876635 78.89678614 -131.90055264 80.31888763 -119.57339668 80.85297394 C-113.98974904 81.11812562 -108.60233541 81.82079997 -103.09146309 82.7746048 C-98.32896565 83.45096887 -93.56369607 83.68940985 -88.76089668 83.90546417 C-84.33028509 84.11207847 -80.18979806 84.61490962 -75.76333809 85.24726105 C-75.43333809 74.68726105 -75.10333809 64.12726105 -74.76333809 53.24726105 C-79.79583809 53.30913605 -84.82833809 53.37101105 -90.01333809 53.43476105 C-108.7334743 53.52249994 -127.40913486 52.81057865 -146.10591316 51.9718132 C-148.28949393 51.87389089 -150.47312823 51.77723738 -152.65677071 51.68070221 C-172.37935453 50.80318211 -192.07016731 49.63778722 -211.76333809 48.24726105 C-211.76333809 41.97726105 -211.76333809 35.70726105 -211.76333809 29.24726105 C-208.8659687 29.33028473 -208.8659687 29.33028473 -205.9100666 29.41498566 C-196.71546678 29.6767838 -187.52070997 29.93270274 -178.32583809 30.18476105 C-177.07310915 30.21910877 -177.07310915 30.21910877 -175.79507256 30.25415039 C-150.39053915 30.94843958 -124.98727143 31.50731983 -99.57583809 31.87226105 C-98.86278133 31.88250683 -98.14972458 31.89275261 -97.41506004 31.90330887 C-88.8645837 32.02549867 -80.31402157 32.14051459 -71.76333809 32.24726105 C-71.43333809 29.93726105 -71.10333809 27.62726105 -70.76333809 25.24726105 C-71.66492149 25.30719238 -72.5665049 25.36712372 -73.49540901 25.42887115 C-102.25023259 27.27345053 -130.91824709 27.49805524 -159.72458076 27.38459015 C-165.61964608 27.36368236 -171.51473032 27.35490308 -177.40982246 27.3449173 C-188.86104953 27.32382556 -200.31216702 27.28882378 -211.76333809 27.24726105 C-211.76333809 20.64726105 -211.76333809 14.04726105 -211.76333809 7.24726105 C-210.31074593 7.20381058 -208.85815376 7.16036011 -207.36154366 7.11559296 C-189.65651419 6.58522264 -171.95173374 6.0468772 -154.24710512 5.50331306 C-152.02076167 5.43498887 -149.79441486 5.36677487 -147.56806755 5.29857635 C-104.41804797 4.01048684 -104.41804797 4.01048684 -61.28286934 2.3136673 C-60.0946401 2.26034524 -60.0946401 2.26034524 -58.88240623 2.20594597 C-51.37097994 1.86609002 -43.86120738 1.5012023 -36.35220528 1.11127472 C-24.23713879 0.49599103 -12.13025908 0.08939623 0 0 Z " fill="#022E46" transform="translate(366.76333808898926,261.7527389526367)"/>
<path d="M0 0 C6.48422054 -0.14365846 12.53975077 0.36410023 18.9375 1.375 C25.74005497 2.4003807 32.53373458 3.33679835 39.375 4.0625 C44.78242087 4.63810961 50.17330078 5.26743235 55.5625 6 C67.78457174 7.64952509 79.86278545 9.07162659 92.18994141 9.60571289 C97.77358905 9.87086457 103.16100268 10.57353893 108.671875 11.52734375 C113.43437244 12.20370782 118.19964202 12.4421488 123.00244141 12.65820312 C127.433053 12.86481742 131.57354003 13.36764858 136 14 C136 20.6 136 27.2 136 34 C127.32566401 34.12459717 118.97860441 33.7573002 110.375 32.6875 C109.23893311 32.55142334 108.10286621 32.41534668 106.93237305 32.27514648 C99.79387951 31.40115832 92.69468527 30.37655695 85.6015625 29.19384766 C78.05098653 27.95498214 70.4660171 27.01539926 62.875 26.0625 C52.82896375 24.79801964 42.81069026 23.41974788 32.8125 21.8125 C31.77399902 21.64564697 30.73549805 21.47879395 29.66552734 21.30688477 C22.55614061 20.1411659 22.55614061 20.1411659 19.84936523 19.45410156 C17.6014659 18.90214212 15.56105959 18.90351383 13.25 18.9375 C11.125 18.96875 11.125 18.96875 9 19 C16.43752314 20.73039492 23.91124686 22.08991976 31.4375 23.375 C32.71955322 23.59414063 34.00160645 23.81328125 35.32250977 24.0390625 C51.0838001 26.72031197 66.85396249 29.25789912 82.72265625 31.21875 C84.43758865 31.43353573 86.15251375 31.64837972 87.86743164 31.86328125 C91.22041228 32.28279554 94.57493065 32.68369462 97.93139648 33.07421875 C114.68586024 35.10299187 114.68586024 35.10299187 121 39 C123.20186088 42.30279131 123.20044366 42.79197351 122.6875 46.5 C122.58824219 47.2734375 122.48898437 48.046875 122.38671875 48.84375 C122 51 122 51 121 54 C105.91087457 54.87614277 90.29915601 52.32737387 75.70703125 48.6171875 C72.34055431 47.84965019 69.02746719 47.58835746 65.59179688 47.32495117 C62.94048488 46.99253819 60.57757693 46.37071276 58.01953125 45.60546875 C51.68500399 43.82852977 45.31132391 42.79094039 38.8125 41.8125 C37.66974609 41.63525391 36.52699219 41.45800781 35.34960938 41.27539062 C32.56721865 40.84464394 29.78408708 40.41961658 27 40 C27 40.66 27 41.32 27 42 C27.64324219 42.03738281 28.28648437 42.07476562 28.94921875 42.11328125 C42.05774525 43.06696863 59.73446425 45.74539909 70.5 53.9375 C73 57 73 57 73.125 60.25 C72 63 72 63 69 65 C58.48717083 66.60307989 48.46040774 63.41219396 38.42773438 60.66259766 C34.9416337 59.71114178 31.44233302 58.81704492 27.9375 57.9375 C26.04644531 57.46183594 26.04644531 57.46183594 24.1171875 56.9765625 C18.45502785 55.60094628 12.74239156 54.44774286 7.02905273 53.30639648 C1.10407454 52.10407454 1.10407454 52.10407454 0 51 C-0.07271741 48.64686445 -0.08370868 46.29166332 -0.0625 43.9375 C-0.05347656 42.64714844 -0.04445312 41.35679687 -0.03515625 40.02734375 C-0.02355469 39.02832031 -0.01195312 38.02929688 0 37 C1.41702513 37.14230808 2.8336096 37.28900746 4.25 37.4375 C5.03890625 37.51871094 5.8278125 37.59992188 6.640625 37.68359375 C9 38 9 38 13 39 C16.96 39 20.92 39 25 39 C16.75 37.35 8.5 35.7 0 34 C0 22.66666667 0 11.33333333 0 0 Z " fill="#92CCE7" transform="translate(155,333)"/>
<path d="M0 0 C2.45935151 4.91870302 2.66322045 9.86557396 1.625 15.25 C0.15600586 17.88452148 0.15600586 17.88452148 -2.375 20.25 C-5.38438425 21.02399592 -8.34180169 21.02026884 -11.4375 21.03515625 C-12.76998779 21.07069359 -12.76998779 21.07069359 -14.12939453 21.10694885 C-16.87795105 21.17604911 -19.62584322 21.21354249 -22.375 21.25 C-23.96491646 21.28861839 -25.55476926 21.32998605 -27.14453125 21.37451172 C-31.05566241 21.48066489 -34.96686413 21.56285118 -38.87869263 21.63842773 C-50.35364073 21.8640016 -61.8226842 22.12790063 -73.28515625 22.72265625 C-74.51859268 22.78652527 -74.51859268 22.78652527 -75.77694702 22.85168457 C-77.46857164 22.93970792 -79.16019146 23.02782345 -80.85180664 23.11602783 C-105.07434555 24.37106685 -129.29751217 24.65922856 -153.54711914 24.90820312 C-156.51058795 24.93934924 -159.47404668 24.97132077 -162.4375 25.00390625 C-163.15937689 25.01172812 -163.88125378 25.01954998 -164.62500572 25.02760887 C-175.80130666 25.15338824 -186.95847989 25.47276225 -198.12750244 25.90991211 C-206.13315047 26.2206906 -214.112484 26.37927097 -222.125 26.3125 C-223.23875 26.30798828 -224.3525 26.30347656 -225.5 26.29882812 C-228.12502607 26.28751336 -230.75002288 26.26962192 -233.375 26.25 C-233.375 20.31 -233.375 14.37 -233.375 8.25 C-146.54821346 3.24981243 -146.54821346 3.24981243 -113.08764648 2.54077148 C-107.07958034 2.41116942 -101.10768264 2.1882197 -95.11328125 1.75390625 C-87.19118555 1.19108672 -79.28288657 1.0145731 -71.34494019 0.86129761 C-56.74597285 0.57287173 -42.20989396 0.01162994 -27.6484375 -1.08959961 C-5.2848958 -2.74031634 -5.2848958 -2.74031634 0 0 Z " fill="#FB8805" transform="translate(388.375,235.75)"/>
<path d="M0 0 C2.56587424 2.02031719 3.84155033 3.2223829 4.50139666 6.4606843 C4.50204607 7.38959026 4.50269547 8.31849622 4.50336456 9.27555084 C4.51379555 10.35045068 4.52422654 11.42535052 4.53497362 12.53282309 C4.52605073 13.71296437 4.51712785 14.89310565 4.50793457 16.10900879 C4.51417453 17.3632548 4.5204145 18.61750081 4.52684355 19.90975428 C4.54357023 23.39342274 4.53527573 26.87665393 4.52289867 30.36032414 C4.513864 34.11636041 4.52781001 37.87232046 4.53881836 41.62834167 C4.55662518 48.98726162 4.55275403 56.34601858 4.5411678 63.70494497 C4.53214222 69.6845206 4.53090567 75.66405049 4.53526306 81.64363098 C4.53587599 82.49397003 4.53648893 83.34430908 4.53712043 84.22041598 C4.5383993 85.94774593 4.53969616 87.67507587 4.5410108 89.4024058 C4.55242293 105.60788093 4.53929298 121.81326563 4.51780933 138.01872593 C4.49993777 151.93033525 4.5030417 165.84181106 4.52148438 179.75341797 C4.54287993 195.90003773 4.55132423 212.04657817 4.53903532 228.19321012 C4.53776109 229.91426308 4.53650361 231.63531604 4.53526306 233.35636902 C4.53464596 234.20320807 4.53402886 235.05004712 4.53339306 235.92254797 C4.5299362 241.89644881 4.5357757 247.87029944 4.54518127 253.8441925 C4.55638805 261.12225021 4.55338917 268.40013531 4.5320583 275.67817318 C4.52152993 279.393132 4.51745611 283.1078028 4.53065491 286.82275963 C4.54473219 290.84575535 4.52794913 294.86802091 4.50793457 298.89099121 C4.51685746 300.07113249 4.52578034 301.25127378 4.53497362 302.46717691 C4.52454263 303.54207675 4.51411164 304.61697659 4.50336456 305.72444916 C4.50271515 306.65335512 4.50206574 307.58226108 4.50139666 308.5393157 C3.83869432 311.79163341 2.59343094 312.98612465 0 315 C-3.5625 315.5 -3.5625 315.5 -7 315 C-9.95090514 312.03286044 -10.37578527 309.8119602 -10.38031673 305.70603848 C-10.38875668 304.62703854 -10.39719662 303.54803861 -10.40589231 302.4363417 C-10.39988227 301.25162735 -10.39387222 300.066913 -10.38768005 298.84629822 C-10.39306559 297.58726309 -10.39845113 296.32822796 -10.40399987 295.03104025 C-10.41848768 291.53411079 -10.4141995 288.03741633 -10.40683305 284.54047382 C-10.40211198 280.77014936 -10.41460169 276.99987652 -10.42485046 273.22956848 C-10.44206369 265.84293887 -10.4428734 258.45639423 -10.43763756 251.06974977 C-10.43359993 245.06824055 -10.43503456 239.0667565 -10.44038582 233.06524849 C-10.44113424 232.21184536 -10.44188266 231.35844222 -10.44265376 230.47917839 C-10.4441852 228.74564571 -10.44572354 227.01211304 -10.44726873 225.27858038 C-10.46100247 209.01545019 -10.45554956 192.75236808 -10.44408352 176.48923898 C-10.43414638 161.59906178 -10.44709855 146.70900874 -10.47101771 131.81885069 C-10.49537726 116.53979895 -10.50502458 101.26080512 -10.49836498 85.98173434 C-10.49486625 77.39954394 -10.49714803 68.81744912 -10.51461601 60.23527336 C-10.5292986 52.93084538 -10.53002518 45.6265803 -10.5125451 38.32215565 C-10.50400068 34.59313844 -10.50196874 30.86441272 -10.51719666 27.13541031 C-10.53347664 23.09894048 -10.51897072 19.06318138 -10.50120544 15.02671814 C-10.51081045 13.83977307 -10.52041546 12.652828 -10.53031152 11.42991489 C-10.52049723 10.3535227 -10.51068294 9.27713052 -10.50057125 8.16812038 C-10.50046391 7.23579694 -10.50035658 6.3034735 -10.50024599 5.34289783 C-10 3 -10 3 -8.1562143 1.20433623 C-5.20019215 -0.44672627 -3.33542304 -0.48641586 0 0 Z " fill="#063149" transform="translate(141,93)"/>
<path d="M0 0 C0.639375 0.391875 1.27875 0.78375 1.9375 1.1875 C3.77007678 4.31366039 3.581917 7.54233039 3 11 C1.0594795 14.79667054 -1.03425475 16.22074267 -4.93383789 17.59765625 C-10.48115197 19.35213621 -15.83829805 19.5221586 -21.62109375 19.625 C-22.75994019 19.65685394 -23.89878662 19.68870789 -25.07214355 19.7215271 C-27.55232791 19.7897519 -30.03268316 19.85197047 -32.51315308 19.90887451 C-36.52756373 20.00209133 -40.54115908 20.11209919 -44.55493164 20.22900391 C-45.59024977 20.25910396 -45.59024977 20.25910396 -46.64648342 20.28981209 C-48.06448578 20.33109833 -49.48248598 20.37245869 -50.90048409 20.41389084 C-53.08653277 20.47725915 -55.2726217 20.53904059 -57.45872498 20.60049438 C-74.28935902 21.07682322 -91.11359755 21.7045875 -107.9375 22.375 C-108.7097353 22.40549564 -109.4819706 22.43599129 -110.27760696 22.46741104 C-135.86840272 23.47916025 -161.41563406 24.89442486 -186.96069336 26.72998047 C-200.35451871 27.67851154 -213.57023696 28.1838825 -227 28 C-227 22.39 -227 16.78 -227 11 C-182.91005352 7.2900505 -138.80116701 3.62118073 -94.59399414 1.65014648 C-84.3351436 1.18965122 -74.11241369 0.53803335 -63.87768555 -0.31860352 C-55.59111899 -0.99876784 -47.3073932 -1.38723482 -38.99780273 -1.65844727 C-33.98972539 -1.8302306 -29.07163155 -2.17840278 -24.09692383 -2.77514648 C-15.90696006 -3.65335776 -7.21759597 -4.42897935 0 0 Z " fill="#FB5907" transform="translate(382,213)"/>
<path d="M0 0 C1.48033716 -0.01213301 2.96064381 -0.02902785 4.44086838 -0.0509491 C6.49877205 -0.07918143 8.55578344 -0.08728456 10.61385918 -0.08965302 C11.79682076 -0.09740753 12.97978233 -0.10516205 14.19859123 -0.11315155 C17.54231521 0.28352133 18.92413272 0.82644921 21.23666191 3.24726105 C21.98666191 6.93476105 21.98666191 6.93476105 22.23666191 10.24726105 C21.32916191 9.75226105 20.42166191 9.25726105 19.48666191 8.74726105 C13.44305408 6.20772483 6.89550765 6.21204871 0.62728691 7.9855423 C-4.75131482 10.34082172 -8.27948203 13.7218026 -12.20083809 17.99726105 C-15.40984987 21.41656266 -17.91679822 23.94785982 -22.76333809 24.43476105 C-24.76423766 24.41723492 -26.7647943 24.34589658 -28.76333809 24.24726105 C-30.40267948 24.24657613 -32.04203867 24.25518986 -33.68130684 24.27069855 C-38.37645814 24.31127932 -43.06824212 24.29104951 -47.76333809 24.24726105 C-47.77751778 23.58339386 -47.79169746 22.91952667 -47.80630684 22.2355423 C-48.05497618 17.63179917 -48.26451768 14.94006717 -51.01333809 11.12226105 C-53.58002718 9.13985528 -53.58002718 9.13985528 -56.26333809 8.62226105 C-60.44422421 9.66748258 -62.60362592 12.4557057 -64.89615059 15.99726105 C-66.65101667 19.0130309 -68.21185233 22.12378531 -69.76333809 25.24726105 C-99.78730752 27.17885718 -129.71412938 27.50330239 -159.79324532 27.38459015 C-165.68169843 27.36366871 -171.57017057 27.35490034 -177.45865059 27.3449173 C-188.8936018 27.32383612 -200.32844304 27.28884016 -211.76333809 27.24726105 C-211.76333809 20.64726105 -211.76333809 14.04726105 -211.76333809 7.24726105 C-210.31074593 7.20381058 -208.85815376 7.16036011 -207.36154366 7.11559296 C-189.65651419 6.58522264 -171.95173374 6.0468772 -154.24710512 5.50331306 C-152.02076167 5.43498887 -149.79441486 5.36677487 -147.56806755 5.29857635 C-104.41804797 4.01048684 -104.41804797 4.01048684 -61.28286934 2.3136673 C-60.0946401 2.26034524 -60.0946401 2.26034524 -58.88240623 2.20594597 C-51.37097994 1.86609002 -43.86120738 1.5012023 -36.35220528 1.11127472 C-24.23713879 0.49599103 -12.13025908 0.08939623 0 0 Z " fill="#FA5806" transform="translate(366.76333808898926,261.7527389526367)"/>
<path d="M0 0 C1.0162999 -0.01525726 1.0162999 -0.01525726 2.0531311 -0.03082275 C3.95454879 -0.05412509 5.85629141 -0.04348807 7.7578125 -0.03125 C9.35713623 -0.02448242 9.35713623 -0.02448242 10.98876953 -0.01757812 C14.61222788 0.63220463 16.28741057 1.91993095 18.875 4.5 C20.25013491 8.86807561 20.27893927 10.70708218 18.1875 14.8125 C14.99568741 18.52190383 12.37201071 19.67304933 7.54858398 20.04663086 C6.69045609 20.11699554 5.83232819 20.18736023 4.94819641 20.25985718 C3.54878059 20.36132553 3.54878059 20.36132553 2.12109375 20.46484375 C1.13356613 20.54264069 0.14603851 20.62043762 -0.87141418 20.70059204 C-4.14282348 20.95518987 -7.41504588 21.19673155 -10.6875 21.4375 C-12.98325224 21.61233147 -15.27898768 21.78738363 -17.57470703 21.96264648 C-34.61119032 23.24496481 -51.65845631 24.28408229 -68.71575928 25.24334717 C-86.95053161 26.26971221 -105.142169 27.59361164 -123.33691406 29.17236328 C-128.61927111 29.62924155 -133.90338663 30.06401251 -139.1875 30.5 C-145.39131043 31.01393497 -151.59398357 31.53957035 -157.79554749 32.07989502 C-161.03606829 32.36142763 -164.27691059 32.63915395 -167.51779175 32.91650391 C-169.107235 33.05345955 -170.69653587 33.19207965 -172.28567505 33.33251953 C-180.91807344 34.09483318 -189.44866746 34.66847248 -198.125 34.5 C-198.125 29.22 -198.125 23.94 -198.125 18.5 C-196.24554688 18.30083984 -196.24554688 18.30083984 -194.328125 18.09765625 C-192.67706754 17.91941709 -191.02602673 17.7410236 -189.375 17.5625 C-188.55 17.47548828 -187.725 17.38847656 -186.875 17.29882812 C-186.07578125 17.21181641 -185.2765625 17.12480469 -184.453125 17.03515625 C-183.7199707 16.956604 -182.98681641 16.87805176 -182.23144531 16.79711914 C-180.13948494 16.54307337 -180.13948494 16.54307337 -178.19824219 15.99780273 C-175.66999803 15.39075023 -173.21774262 15.19515267 -170.625 15 C-169.573125 14.9175 -168.52125 14.835 -167.4375 14.75 C-164.125 14.5 -164.125 14.5 -160.8125 14.25 C-159.2346875 14.12625 -159.2346875 14.12625 -157.625 14 C-156.18640625 13.89171875 -156.18640625 13.89171875 -154.71875 13.78125 C-152.20930078 13.57027143 -152.20930078 13.57027143 -150.15234375 13 C-147.50006032 12.3458723 -144.91219052 12.18860651 -142.1875 12 C-141.04539063 11.9175 -139.90328125 11.835 -138.7265625 11.75 C-136.32552083 11.58333333 -133.92447917 11.41666667 -131.5234375 11.25 C-130.38132812 11.1675 -129.23921875 11.085 -128.0625 11 C-127.01964844 10.9278125 -125.97679687 10.855625 -124.90234375 10.78125 C-122.23854951 10.58014013 -122.23854951 10.58014013 -120.15234375 10 C-117.36023705 9.31138794 -114.61865768 9.18380415 -111.75 9 C-109.90148437 8.87625 -109.90148437 8.87625 -108.015625 8.75 C-105.421875 8.58333333 -102.828125 8.41666667 -100.234375 8.25 C-99.00203125 8.1675 -97.7696875 8.085 -96.5 8 C-94.81003906 7.89171875 -94.81003906 7.89171875 -93.0859375 7.78125 C-90.62319849 7.54732228 -88.50559499 7.10647705 -86.125 6.5 C-84.34020321 6.33301882 -82.55149174 6.20594242 -80.76171875 6.10546875 C-79.66754639 6.0389209 -78.57337402 5.97237305 -77.44604492 5.90380859 C-76.2469751 5.83242676 -75.04790527 5.76104492 -73.8125 5.6875 C-65.06847544 5.1413808 -56.36295968 4.46345862 -47.65625 3.48046875 C-46.44964973 3.34450539 -46.44964973 3.34450539 -45.21867371 3.20579529 C-44.40812027 3.11443802 -43.59756683 3.02308075 -42.76245117 2.92895508 C-28.50224302 1.32479836 -14.35784978 0.08734782 0 0 Z " fill="#FEB904" transform="translate(353.125,186.5)"/>
<path d="M0 0 C0.99 0.99 0.99 0.99 2 2 C1.86121114 5.74729928 1.69538044 8.16654914 -0.74510193 11.09159851 C-7.87173378 17.12312385 -17.80493781 17.76096407 -26.74609375 18.44921875 C-27.91962906 18.55216751 -29.09316437 18.65511627 -30.30226135 18.76118469 C-34.01295952 19.08409527 -37.72495937 19.38658754 -41.4375 19.6875 C-45.17456953 20.00327143 -48.91124252 20.32325614 -52.64772034 20.64595032 C-54.96333239 20.84455812 -57.27935805 21.03841439 -59.59580994 21.22697449 C-60.64112381 21.31409195 -61.68643768 21.40120941 -62.76342773 21.4909668 C-63.68067123 21.56550583 -64.59791473 21.64004486 -65.54295349 21.71684265 C-67.78147562 21.9748166 -69.82628202 22.42550051 -72 23 C-74.07087134 23.24615918 -76.14590879 23.45811563 -78.22265625 23.6484375 C-79.46861572 23.76493652 -80.7145752 23.88143555 -81.99829102 24.00146484 C-82.65950958 24.06211121 -83.32072815 24.12275757 -84.00198364 24.1852417 C-87.53341598 24.51046047 -91.06355582 24.84914465 -94.59375 25.1875 C-95.31031265 25.25609222 -96.02687531 25.32468445 -96.76515198 25.39535522 C-116.82835966 27.32410634 -136.80616714 29.83737463 -156.78141785 32.50994873 C-159.78350179 32.91120956 -162.78590048 33.31005238 -165.78851318 33.70733643 C-167.27725298 33.90435316 -168.76589899 34.10207978 -170.25445557 34.30047607 C-172.42563375 34.58853244 -174.59745153 34.87117591 -176.76953125 35.15234375 C-178.01968018 35.31597412 -179.2698291 35.47960449 -180.55786133 35.64819336 C-184 36 -184 36 -190 36 C-190 31.05 -190 26.1 -190 21 C-166.07477785 17.17161274 -142.13287987 13.52436275 -118.125 10.25 C-117.08314545 10.10779022 -116.04129089 9.96558044 -114.96786499 9.81906128 C-105.12656892 8.478723 -95.28260369 7.16215583 -85.43173218 5.89405823 C-76.39072931 4.72901752 -67.36404388 3.49195649 -58.34375 2.17578125 C-56.20834524 1.86645424 -54.07292856 1.55720955 -51.9375 1.24804688 C-48.70100269 0.77925678 -45.46511914 0.30730902 -42.23046875 -0.17407227 C-8.76554522 -5.14120874 -8.76554522 -5.14120874 0 0 Z " fill="#20A1BE" transform="translate(345,165)"/>
<path d="M0 0 C2.08455813 1.8828267 2.90438358 3.15790159 3.9375 5.75 C4.01953125 8.00390625 4.01953125 8.00390625 3.75 10.3125 C3.63591797 11.45912109 3.63591797 11.45912109 3.51953125 12.62890625 C2.8144581 15.19840103 1.94239805 16.02470829 -0.0625 17.75 C-6.95272861 21.193711 -14.70727341 21.54708456 -22.25 22.1875 C-24.24044012 22.37287018 -26.23087618 22.55828976 -28.22114563 22.7454834 C-30.35291568 22.94519248 -32.48502506 23.14095446 -34.6171875 23.33642578 C-70.64613031 26.66458045 -106.54666758 31.21168713 -142.16015625 37.6640625 C-142.94245605 37.80569824 -143.72475586 37.94733398 -144.53076172 38.09326172 C-146.56739488 38.46653244 -148.60216041 38.84995594 -150.63671875 39.234375 C-154.0625 39.75 -154.0625 39.75 -160.0625 39.75 C-160.0625 34.14 -160.0625 28.53 -160.0625 22.75 C-156.0099324 21.39914413 -152.73340687 20.41783972 -148.625 19.75 C-145.58469787 19.25434667 -142.74204898 18.654514 -139.78515625 17.7734375 C-135.51761156 16.60019856 -131.31536432 15.97125273 -126.9375 15.375 C-118.96950779 14.23830119 -111.07519751 12.87303599 -103.18505859 11.28369141 C-87.83913602 8.24099256 -72.32936513 6.18912697 -56.8125 4.25 C-53.39572082 3.81990077 -49.97911138 3.3884611 -46.5625 2.95703125 C-45.32339874 2.80105217 -45.32339874 2.80105217 -44.05926514 2.641922 C-39.30648524 2.04164267 -34.55810929 1.41682508 -29.8125 0.76171875 C-28.77641602 0.61992187 -27.74033203 0.478125 -26.67285156 0.33203125 C-24.85626617 0.08146775 -23.04040147 -0.17442368 -21.22558594 -0.4375 C-6.12851392 -2.50143425 -6.12851392 -2.50143425 0 0 Z " fill="#FEB905" transform="translate(315.0625,141.25)"/>
<path d="M0 0 C1.93157959 0.05534912 3.86315918 0.11069824 5.85327148 0.16772461 C15.04787131 0.42952275 24.24262812 0.68544169 33.4375 0.9375 C34.69022894 0.97184772 34.69022894 0.97184772 35.96826553 1.00688934 C61.37279894 1.70117853 86.77606666 2.26005878 112.1875 2.625 C112.90055676 2.63524578 113.61361351 2.64549156 114.34827805 2.65604782 C122.89875439 2.77823762 131.44931652 2.89325355 140 3 C139.93148331 3.58112045 139.86296661 4.16224091 139.79237366 4.76097107 C139.28798753 9.14550242 138.86008685 13.49782885 138.68359375 17.91015625 C138.64169922 18.91884766 138.59980469 19.92753906 138.55664062 20.96679688 C138.51732422 21.98837891 138.47800781 23.00996094 138.4375 24.0625 C138.37272461 25.64708008 138.37272461 25.64708008 138.30664062 27.26367188 C138.20162663 29.84234879 138.09947123 32.42110435 138 35 C137.67 35 137.34 35 137 35 C137 31.37 137 27.74 137 24 C135.7620166 24.02356567 135.7620166 24.02356567 134.49902344 24.04760742 C111.51914253 24.41293019 88.61078017 23.75427401 65.65742493 22.72455215 C63.47384415 22.62662985 61.29020986 22.52997633 59.10656738 22.43344116 C39.38398355 21.55592107 19.69317078 20.39052618 0 19 C0 12.73 0 6.46 0 0 Z " fill="#20A0BE" transform="translate(155,291)"/>
<path d="M0 0 C11.62679453 0.43383562 23.16524435 1.15158373 34.74816895 2.23843384 C61.65190657 4.75655759 88.62950709 5.99065604 115.63916016 6.65869141 C116.84620605 6.6901123 118.05325195 6.7215332 119.296875 6.75390625 C120.33166992 6.77783447 121.36646484 6.8017627 122.43261719 6.82641602 C127.29838693 7.06317774 132.14847977 7.55895271 137 8 C137 15.59 137 23.18 137 31 C136.67 30.34 136.34 29.68 136 29 C134.71609375 28.93941406 133.4321875 28.87882812 132.109375 28.81640625 C128.37879979 28.64018383 124.64836678 28.46118067 120.91796875 28.28125 C117.25425071 28.10511543 113.59039128 27.93765304 109.92578125 27.78125 C98.49936887 27.27773258 87.1477282 26.34951422 75.76367188 25.25732422 C73.10917834 25.01016555 70.45398251 24.78348692 67.796875 24.56640625 C53.87990808 23.42514572 40.00725295 21.95701191 26.13061523 20.40869141 C17.42538526 19.44262538 8.73861389 18.61512739 0 18 C0 12.06 0 6.12 0 0 Z " fill="#90CBE7" transform="translate(155,312)"/>
<path d="M0 0 C6.48422054 -0.14365846 12.53975077 0.36410023 18.9375 1.375 C25.74005497 2.4003807 32.53373458 3.33679835 39.375 4.0625 C44.78242087 4.63810961 50.17330078 5.26743235 55.5625 6 C67.78457174 7.64952509 79.86278545 9.07162659 92.18994141 9.60571289 C97.77358905 9.87086457 103.16100268 10.57353893 108.671875 11.52734375 C113.43437244 12.20370782 118.19964202 12.4421488 123.00244141 12.65820312 C127.433053 12.86481742 131.57354003 13.36764858 136 14 C136 20.6 136 27.2 136 34 C127.32566401 34.12459717 118.97860441 33.7573002 110.375 32.6875 C109.23893311 32.55142334 108.10286621 32.41534668 106.93237305 32.27514648 C99.79387951 31.40115832 92.69468527 30.37655695 85.6015625 29.19384766 C78.72046782 28.06482771 71.81409837 27.18497846 64.89581299 26.31637573 C43.13562314 23.58263235 21.55764893 20.02466534 0 16 C0 10.72 0 5.44 0 0 Z " fill="#20A1BE" transform="translate(155,333)"/>
<path d="M0 0 C0.9384375 -0.01417969 1.876875 -0.02835937 2.84375 -0.04296875 C5.62465054 0.19831527 7.18245777 0.65771883 9.5 2.1875 C11.9915904 5.9248856 11.95793285 7.76081583 11.5 12.1875 C9.28505615 15.74723119 7.30611879 17.55711619 3.5 19.1875 C1.41636658 19.66011047 1.41636658 19.66011047 -0.84008789 19.9777832 C-2.12183395 20.16384628 -2.12183395 20.16384628 -3.42947388 20.35366821 C-4.35122406 20.48059052 -5.27297424 20.60751282 -6.22265625 20.73828125 C-7.66981522 20.94679214 -7.66981522 20.94679214 -9.14620972 21.15951538 C-11.21247291 21.45713791 -13.27913955 21.75197031 -15.34616089 22.04428101 C-20.7254968 22.80647226 -26.10127626 23.59262479 -31.4765625 24.3828125 C-32.5311113 24.53781723 -33.5856601 24.69282196 -34.67216492 24.8525238 C-44.69654789 26.34013997 -54.6410772 28.1379156 -64.58984375 30.06640625 C-71.82418184 31.46648402 -79.09667913 32.63319878 -86.37866211 33.7565918 C-91.9749382 34.6505831 -97.29143267 35.89093997 -102.69921875 37.59716797 C-105.5 38.1875 -105.5 38.1875 -113.5 38.1875 C-113.5 32.9075 -113.5 27.6275 -113.5 22.1875 C-91.51854078 16.11132428 -69.26261452 11.67748129 -46.75390625 8.0546875 C-41.17225752 7.15020284 -35.64657589 6.056432 -30.109375 4.91015625 C-25.13194142 3.91359217 -20.13436674 3.04539135 -15.13110352 2.18920898 C-11.21820219 1.51927873 -11.21820219 1.51927873 -7.35546875 0.61328125 C-4.88187479 0.04565653 -2.53546662 0.01741392 0 0 Z " fill="#92CCE7" transform="translate(268.5,120.8125)"/>
<path d="M0 0 C2.5625 1.4375 2.5625 1.4375 4 4 C4.9290348 9.69303885 4.11840201 14.08251991 1 19 C-3.85851118 23.85851118 -13.65137602 24.00933893 -20.25 24.875 C-28.31187492 25.94080719 -36.2438663 27.59558622 -44.20605469 29.23583984 C-45.24020508 29.44805176 -46.27435547 29.66026367 -47.33984375 29.87890625 C-48.26144287 30.0704126 -49.18304199 30.26191895 -50.13256836 30.45922852 C-53.4039019 31.07617222 -56.70445789 31.52920827 -60 32 C-60 25.4 -60 18.8 -60 12 C-54.66927053 10.65531149 -49.33692872 9.3196197 -44 8 C-43.26845703 7.81856445 -42.53691406 7.63712891 -41.78320312 7.45019531 C-33.46511909 5.39870019 -25.24748102 3.57286676 -16.734375 2.4921875 C-13.97497102 2.09032137 -13.97497102 2.09032137 -11.42578125 0.96875 C-7.61050744 -0.55490202 -4.04046138 -0.58043941 0 0 Z " fill="#20A1BE" transform="translate(215,105)"/>
<path d="M0 0 C8.63759407 0.90668511 17.16378278 2.23287572 25.72509766 3.68164062 C27.472551 3.97400982 29.22125498 4.25901292 30.97119141 4.53613281 C40.756704 6.08833034 50.13549383 8.0732169 59.4765625 11.4296875 C60.65344131 11.84470016 60.65344131 11.84470016 61.85409546 12.26809692 C66.5430057 14.05523904 69.79980559 15.97215542 73 20 C73 23.1875 73 23.1875 72 26 C66.59840957 29.60106029 59.89713512 28.73473284 53.69238281 27.56494141 C48.56454718 26.41616636 43.49502837 25.05136139 38.42773438 23.66259766 C34.9416337 22.71114178 31.44233302 21.81704492 27.9375 20.9375 C26.67679688 20.62039063 25.41609375 20.30328125 24.1171875 19.9765625 C18.45502785 18.60094628 12.74239156 17.44774286 7.02905273 16.30639648 C1.10407454 15.10407454 1.10407454 15.10407454 0 14 C-0.07271741 11.64686445 -0.08370868 9.29166332 -0.0625 6.9375 C-0.05347656 5.64714844 -0.04445312 4.35679687 -0.03515625 3.02734375 C-0.02355469 2.02832031 -0.01195312 1.02929688 0 0 Z " fill="#063149" transform="translate(155,370)"/>
<path d="M0 0 C-1.74231929 3.61126485 -3.85905806 6.72976141 -6.1875 10 C-17.72598451 26.51980586 -26.86536362 44.78890188 -33 64 C-34.65 64 -36.3 64 -38 64 C-38.76909741 42.29436212 -35.35824441 21.97695683 -30 1 C-26.87522287 0.82897872 -23.75015208 0.66401507 -20.625 0.5 C-19.75488281 0.45230469 -18.88476562 0.40460938 -17.98828125 0.35546875 C-11.98637239 0.04425866 -6.00955557 -0.05823526 0 0 Z " fill="#209FBC" transform="translate(348,285)"/>
<path d="M0 0 C1.91917133 0.21793309 3.83836152 0.43570019 5.75756836 0.65332031 C6.74981415 0.76760376 7.74205994 0.88188721 8.76437378 0.99963379 C26.61095344 3.04964481 44.40980316 4.81200726 62.35131836 5.75878906 C64.393325 5.9218717 66.42862672 6.17296362 68.45581055 6.46777344 C72.12669233 6.98338425 75.74516457 7.26231069 79.4453125 7.4765625 C80.12433624 7.51716797 80.80335999 7.55777344 81.50296021 7.59960938 C83.65286433 7.72799318 85.80295757 7.85267259 87.953125 7.9765625 C104.98711076 8.96292313 104.98711076 8.96292313 113.078125 9.9765625 C113.078125 11.9565625 113.078125 13.9365625 113.078125 15.9765625 C89.45695946 15.26610808 89.45695946 15.26610808 79.28125 13.44140625 C75.35700463 12.8719121 71.47448977 12.69902922 67.515625 12.5390625 C51.20689398 11.85055393 34.88433168 9.96481732 18.75 7.5078125 C13.53553021 6.75337857 8.30724309 6.12042261 3.078125 5.4765625 C-5.60413733 4.40510282 -14.26965394 3.2713491 -22.921875 1.9765625 C-17.45099566 -3.73218116 -7.0977362 -0.84272207 0 0 Z " fill="#F0F8FA" transform="translate(177.921875,331.0234375)"/>
<path d="M0 0 C-0.33 2.31 -0.66 4.62 -1 7 C-10.39577041 7.06311986 -19.79155386 7.10260184 -29.1875 7.125 C-29.90045605 7.12671204 -30.61341209 7.12842407 -31.34797287 7.13018799 C-55.76785686 7.18179337 -80.15478745 6.75900157 -104.5625 6 C-105.3319482 5.97608437 -106.10139641 5.95216873 -106.89416122 5.92752838 C-116.26333941 5.63483061 -125.63191557 5.32596718 -135 5 C-134.34 4.01 -133.68 3.02 -133 2 C-130.10110979 1.68903846 -127.41200898 1.57305298 -124.5090332 1.58349609 C-123.18875877 1.57061806 -123.18875877 1.57061806 -121.84181213 1.55747986 C-118.91138862 1.53226038 -115.98130379 1.52801995 -113.05078125 1.5234375 C-111.00122558 1.50911594 -108.9516795 1.49335686 -106.90214539 1.47622681 C-101.47760972 1.43422023 -96.05313312 1.40935821 -90.628479 1.38873291 C-82.02202339 1.35308984 -73.41571681 1.29086471 -64.80940819 1.23024368 C-61.83504094 1.21154577 -58.86071211 1.19952419 -55.88630676 1.18881226 C-45.1923977 1.13722815 -34.53159524 0.88199946 -23.84994221 0.35045433 C-15.8932349 -0.04205154 -7.96532371 -0.10404632 0 0 Z " fill="#F8F6F5" transform="translate(296,287)"/>
<path d="M0 0 C36.03124983 2.36501866 72.14009787 3.4902853 108.23648071 4.25949097 C108.23648071 5.90949097 108.23648071 7.55949097 108.23648071 9.25949097 C84.74926436 8.92705539 61.31300361 8.18377333 37.86148071 6.82199097 C36.78362305 6.76054901 35.70576538 6.69910706 34.59524536 6.63580322 C21.17151638 5.86311042 7.79704775 4.83800988 -5.58016968 3.4800415 C-8.52161375 3.18291224 -11.46468397 2.9040378 -14.40805054 2.62667847 C-17.90805054 2.29334513 -21.40805054 1.9600118 -24.90805054 1.62667847 C-26.18035522 1.50550659 -27.45265991 1.38433472 -28.76351929 1.25949097 C-21.44324952 -3.62068888 -8.49685295 -0.56347897 0 0 Z " fill="#EBF6F9" transform="translate(183.76351928710938,310.7405090332031)"/>
<path d="M0 0 C1.99788438 0.34578768 3.99759451 0.68143549 6 1 C6 1.33 6 1.66 6 2 C-16.64196982 3.81552492 -39.22566132 5.3185773 -61.94165039 5.70874023 C-63.45459464 5.73524181 -64.96753425 5.76200981 -66.48046875 5.7890625 C-67.20635193 5.8018222 -67.93223511 5.81458191 -68.68011475 5.82772827 C-74.62652816 5.95086388 -80.53858423 6.35472374 -86.47045898 6.78613281 C-91.9617097 7.11886683 -97.43832408 7.10771777 -102.9375 7.0625 C-104.01451172 7.05798828 -105.09152344 7.05347656 -106.20117188 7.04882812 C-108.80084555 7.03727402 -111.40038849 7.02099326 -114 7 C-114 6.67 -114 6.34 -114 6 C-122.25 5.67 -130.5 5.34 -139 5 C-139 4.67 -139 4.34 -139 4 C-127.00920586 3.49218337 -115.01827427 2.9877451 -103.027174 2.48720646 C-97.45457283 2.25449458 -91.88201856 2.02077138 -86.30957031 1.78442383 C-65.06497314 0.88412593 -43.81991415 -0.01536385 -22.56445694 -0.62021065 C-20.91906947 -0.6671784 -19.27372912 -0.71583123 -17.62844467 -0.76627922 C-15.39059419 -0.83386275 -13.15268106 -0.89395249 -10.91455078 -0.95141602 C-9.66731232 -0.98542007 -8.42007385 -1.01942413 -7.13504028 -1.05445862 C-4.48423068 -1.00841155 -2.50590831 -0.76154031 0 0 Z " fill="#FEEBDD" transform="translate(376,232)"/>
<path d="M0 0 C1.42790576 2.38326717 1.4856536 4.04429627 1.4609375 6.8125 C1.46867187 7.67875 1.47640625 8.545 1.484375 9.4375 C1.00113279 12.31800256 0.31092697 12.98341948 -1.9140625 14.8125 C-3.859375 15.52026367 -3.859375 15.52026367 -6.0390625 15.98046875 C-6.82796875 16.15126953 -7.616875 16.32207031 -8.4296875 16.49804688 C-9.24953125 16.66369141 -10.069375 16.82933594 -10.9140625 17 C-12.14382812 17.26586914 -12.14382812 17.26586914 -13.3984375 17.53710938 C-16.65591616 18.22639612 -19.57288608 18.8125 -22.9140625 18.8125 C-22.9140625 13.5325 -22.9140625 8.2525 -22.9140625 2.8125 C-4.50818015 -2.79691176 -4.50818015 -2.79691176 0 0 Z " fill="#08334B" transform="translate(177.9140625,94.1875)"/>
<path d="M0 0 C3.26460973 1.80412643 4.88929795 2.83394693 7 6 C7.45748511 11.58131831 7.19945613 15.2008158 4 20 C-0.88895511 23.54027784 -7.59771904 23.11700265 -13.375 23.0625 C-15.24285156 23.04896484 -15.24285156 23.04896484 -17.1484375 23.03515625 C-18.55996094 23.01775391 -18.55996094 23.01775391 -20 23 C-15.34990773 13.69981545 -8.01987993 6.48415824 0 0 Z " fill="#22A1BD" transform="translate(368,294)"/>
<path d="M0 0 C5.28 0 10.56 0 16 0 C14.7991709 3.6024873 13.71713364 6.81681869 12.16015625 10.20703125 C11.81919922 10.95919922 11.47824219 11.71136719 11.12695312 12.48632812 C10.42242784 14.02594209 9.71671583 15.56501361 9.00976562 17.10351562 C6.65358143 22.3084197 4.70150627 27.54595637 3 33 C1.35 33 -0.3 33 -2 33 C-2.39755352 9.88990826 -2.39755352 9.88990826 0 0 Z " fill="#88C3DF" transform="translate(312,316)"/>
<path d="M0 0 C1.81213857 -0.05519204 3.62479799 -0.09331732 5.4375 -0.125 C6.44683594 -0.14820313 7.45617187 -0.17140625 8.49609375 -0.1953125 C11.87022377 -0.0072339 14.91507813 0.63341011 18.1940918 1.41162109 C24.62344644 2.75981083 31.18002427 3.49589399 37.6875 4.375 C39.28812188 4.59389424 40.88870737 4.81305474 42.48925781 5.0324707 C47.32541325 5.69396281 52.16260776 6.34762389 57 7 C58.45068667 7.19610357 59.90137037 7.39222905 61.35205078 7.58837891 C75.22577148 9.46224264 89.10218713 11.31272559 103 13 C103 13.33 103 13.66 103 14 C101.02 14.33 99.04 14.66 97 15 C97 15.33 97 15.66 97 16 C78.49521201 15.06995 60.24818945 12.14151152 42.02514648 8.91381836 C32.44351907 7.22136804 22.84252648 5.71561704 13.2097168 4.34399414 C12.20207275 4.19567139 11.19442871 4.04734863 10.15625 3.89453125 C9.27775391 3.76925049 8.39925781 3.64396973 7.49414062 3.51489258 C4.82927504 2.96475539 2.49238293 2.0804983 0 1 C0 0.67 0 0.34 0 0 Z " fill="#EDF7FA" transform="translate(161,351)"/>
<path d="M0 0 C10.98214286 1.20535714 10.98214286 1.20535714 14.6875 5.0625 C17.70188931 9.15654165 17.59961507 13.10314361 17 18 C14.72923158 18.02699725 12.45837179 18.04639453 10.1875 18.0625 C8.29064453 18.07990234 8.29064453 18.07990234 6.35546875 18.09765625 C3 18 3 18 0 17 C0 11.39 0 5.78 0 0 Z " fill="#0E374F" transform="translate(155,386)"/>
<path d="M0 0 C5.65063193 2.45679649 5.65063193 2.45679649 7.17578125 4.828125 C8.57509207 8.5154085 8.47103193 12.11755504 8 16 C6.27310955 19.28931514 5.5579199 19.8140267 2 21 C-0.22574335 21.22451458 -2.45581519 21.40782878 -4.6875 21.5625 C-6.45673828 21.68818359 -6.45673828 21.68818359 -8.26171875 21.81640625 C-9.16535156 21.87699219 -10.06898438 21.93757813 -11 22 C-9.61674942 18.34001161 -7.96682085 14.97864809 -6.0625 11.5625 C-3.95254075 7.74496981 -1.90793882 3.92187425 0 0 Z " fill="#8DC8E3" transform="translate(344,321)"/>
<path d="M0 0 C-0.30260742 0.60368408 -0.60521484 1.20736816 -0.91699219 1.8293457 C-1.7298415 3.45852588 -2.53173312 5.09318074 -3.328125 6.73046875 C-7.82171577 10.54739307 -13.07644176 9.51760639 -18.75 9.3125 C-20.51150391 9.27866211 -20.51150391 9.27866211 -22.30859375 9.24414062 C-25.20701637 9.1852296 -28.10286427 9.10301631 -31 9 C-30.67 6.36 -30.34 3.72 -30 1 C-26.87514629 0.83010504 -23.75016348 0.66401567 -20.625 0.5 C-19.75488281 0.45230469 -18.88476562 0.40460938 -17.98828125 0.35546875 C-11.98637239 0.04425866 -6.00955557 -0.05823526 0 0 Z " fill="#FAF6F4" transform="translate(348,285)"/>
<path d="M0 0 C-0.33 0.66 -0.66 1.32 -1 2 C-3.11938477 2.39477539 -3.11938477 2.39477539 -5.94140625 2.59765625 C-6.988125 2.6764502 -8.03484375 2.75524414 -9.11328125 2.83642578 C-10.25152344 2.91103027 -11.38976562 2.98563477 -12.5625 3.0625 C-13.73039062 3.14483887 -14.89828125 3.22717773 -16.1015625 3.31201172 C-27.72612772 4.10359821 -39.35359359 4.66759728 -51 5 C-52.34868164 5.04302246 -52.34868164 5.04302246 -53.72460938 5.08691406 C-56.23312181 5.16036569 -58.74075132 5.21030975 -61.25 5.25 C-62.34924805 5.282146 -62.34924805 5.282146 -63.47070312 5.31494141 C-67.76155122 5.34260447 -69.74147194 4.70502466 -73 2 C-48.64447486 -0.0519107 -24.42843692 -0.23050714 0 0 Z " fill="#FEF6F0" transform="translate(263,237)"/>
<path d="M0 0 C1.04414063 0.00483398 1.04414063 0.00483398 2.109375 0.00976562 C2.80546875 0.01814453 3.5015625 0.02652344 4.21875 0.03515625 C4.94578125 0.03966797 5.6728125 0.04417969 6.421875 0.04882812 C8.18753681 0.06044432 9.9531553 0.07837184 11.71875 0.09765625 C11.71875 0.42765625 11.71875 0.75765625 11.71875 1.09765625 C14.68875 1.42765625 17.65875 1.75765625 20.71875 2.09765625 C20.71875 2.42765625 20.71875 2.75765625 20.71875 3.09765625 C19.52221802 3.17282471 19.52221802 3.17282471 18.30151367 3.24951172 C14.5029951 3.48904081 10.70459486 3.73039154 6.90625 3.97265625 C6.2127948 4.0167865 5.5193396 4.06091675 4.80487061 4.10638428 C-6.29031861 4.81462863 -17.37780758 5.59844961 -28.46020508 6.48779297 C-40.76503618 7.44311611 -40.76503618 7.44311611 -46.28125 7.09765625 C-46.94125 6.10765625 -47.60125 5.11765625 -48.28125 4.09765625 C-46.70827148 3.96919312 -46.70827148 3.96919312 -45.10351562 3.83813477 C-41.18214939 3.51742538 -37.26097127 3.19446347 -33.33984375 2.87084961 C-31.64848736 2.73157093 -29.95708174 2.59288863 -28.265625 2.45483398 C-25.82278204 2.25534475 -23.38012903 2.05365242 -20.9375 1.8515625 C-20.19133423 1.79110245 -19.44516846 1.7306424 -18.6763916 1.66835022 C-15.10749154 1.37106665 -11.55923925 1.02012188 -8.0078125 0.55664062 C-5.28020871 0.22069362 -2.7352411 -0.02279368 0 0 Z " fill="#FEF1E1" transform="translate(214.28125,215.90234375)"/>
<path d="M0 0 C5.45812912 -0.15925576 10.50551607 0.42494466 15.875 1.375 C16.66567871 1.51075439 17.45635742 1.64650879 18.27099609 1.78637695 C23.55249055 2.70653017 28.78676524 3.744962 34 5 C33.01 5.33 32.02 5.66 31 6 C31 6.66 31 7.32 31 8 C25.34866099 7.34286756 19.91271119 6.07373185 14.37890625 4.765625 C9.61274829 3.6856632 4.81671448 2.82048243 0 2 C0 1.34 0 0.68 0 0 Z " fill="#DBE6EC" transform="translate(182,373)"/>
<path d="M0 0 C5.28 0 10.56 0 16 0 C15.34 1.65 14.68 3.3 14 5 C9.38 5 4.76 5 0 5 C0 3.35 0 1.7 0 0 Z " fill="#F1F8FA" transform="translate(312,316)"/>
<path d="M0 0 C1.99788438 0.34578768 3.99759451 0.68143549 6 1 C6 1.33 6 1.66 6 2 C-0.70019789 2.70132913 -7.26257354 3.11044961 -14 3 C-14 2.67 -14 2.34 -14 2 C-27.86 1.505 -27.86 1.505 -42 1 C-42 0.67 -42 0.34 -42 0 C-36.66164927 -0.1678224 -31.32314765 -0.32836013 -25.984375 -0.48217773 C-24.16855997 -0.5355173 -22.35280207 -0.59084022 -20.53710938 -0.64819336 C-17.92590653 -0.73032912 -15.31458074 -0.80530897 -12.703125 -0.87890625 C-11.48728729 -0.91945885 -11.48728729 -0.91945885 -10.24688721 -0.96083069 C-6.61910958 -1.05669676 -3.48845564 -0.95165666 0 0 Z " fill="#FDDCC6" transform="translate(376,232)"/>
<path d="M0 0 C-0.33 0.33 -0.66 0.66 -1 1 C-0.34 1.66 0.32 2.32 1 3 C-1.413762 3.69951063 -3.83010234 4.38483919 -6.25 5.0625 C-6.93191406 5.26166016 -7.61382812 5.46082031 -8.31640625 5.66601562 C-14.58342161 7.40009269 -14.58342161 7.40009269 -18 6 C-17.34 6 -16.68 6 -16 6 C-16 5.34 -16 4.68 -16 4 C-17.32 3.67 -18.64 3.34 -20 3 C-17.04340215 2.30415424 -14.08512767 1.61801493 -11.125 0.9375 C-10.28324219 0.73833984 -9.44148437 0.53917969 -8.57421875 0.33398438 C-7.76855469 0.15029297 -6.96289062 -0.03339844 -6.1328125 -0.22265625 C-5.38918457 -0.39547119 -4.64555664 -0.56828613 -3.87939453 -0.74633789 C-2 -1 -2 -1 0 0 Z " fill="#D2E2E7" transform="translate(178,109)"/>
<path d="M0 0 C0.65484375 0.12117188 1.3096875 0.24234375 1.984375 0.3671875 C3.35335937 0.61855469 3.35335937 0.61855469 4.75 0.875 C5.74257812 1.05804688 6.73515625 1.24109375 7.7578125 1.4296875 C9.95630199 1.81640975 12.1599046 2.17492761 14.3671875 2.5078125 C15.97980469 2.75144531 15.97980469 2.75144531 17.625 3 C18.62789062 3.144375 19.63078125 3.28875 20.6640625 3.4375 C21.43492187 3.623125 22.20578125 3.80875 23 4 C23.33 4.66 23.66 5.32 24 6 C14.85495156 6.40411834 6.82365744 5.42614476 -2 3 C-1.34 2.01 -0.68 1.02 0 0 Z " fill="#DEE6EA" transform="translate(157,367)"/>
<path d="M0 0 C1.98 0 3.96 0 6 0 C5.67 2.31 5.34 4.62 5 7 C3.35 7 1.7 7 0 7 C0 4.69 0 2.38 0 0 Z " fill="#E3ECEF" transform="translate(310,342)"/>
<path d="M0 0 C1.91635217 -0.05423638 3.83314925 -0.09289963 5.75 -0.125 C7.35101563 -0.15980469 7.35101563 -0.15980469 8.984375 -0.1953125 C11.92470106 -0.00487687 13.52361878 0.47329896 16 2 C15.34 2 14.68 2 14 2 C14 2.66 14 3.32 14 4 C9.02906176 3.58846263 4.55491614 3.20399168 0 1 C0 0.67 0 0.34 0 0 Z " fill="#E6F4F8" transform="translate(161,351)"/>
<path d="M0 0 C3.63 0.66 7.26 1.32 11 2 C11 2.66 11 3.32 11 4 C6.48382401 4.07654536 2.40914783 4.10228696 -2 3 C-1.34 2.01 -0.68 1.02 0 0 Z " fill="#ECF1F4" transform="translate(157,367)"/>
<path d="M0 0 C5.4185766 -0.22577402 9.77487721 0.53329887 15 2 C15 2.33 15 2.66 15 3 C9.87416389 3.10251672 5.05002222 3.03590199 0 2 C0 1.34 0 0.68 0 0 Z " fill="#E3EAED" transform="translate(182,373)"/>
<path d="M0 0 C1.32 0 2.64 0 4 0 C3.71758359 1.46015291 3.42373386 2.91809793 3.125 4.375 C2.96257812 5.18710937 2.80015625 5.99921875 2.6328125 6.8359375 C2 9 2 9 0 11 C0 7.37 0 3.74 0 0 Z " fill="#168DAB" transform="translate(310,349)"/>
<path d="M0 0 C-0.99 0.33 -1.98 0.66 -3 1 C-3 1.66 -3 2.32 -3 3 C-5.31 2.67 -7.62 2.34 -10 2 C-6.5980513 -0.09350689 -3.94727588 -0.17942163 0 0 Z " fill="#CBD7DD" transform="translate(216,378)"/>
</svg>
